<svg width="174" height="41" viewBox="0 0 174 41" fill="none" xmlns="http://www.w3.org/2000/svg">
<path fill-rule="evenodd" clip-rule="evenodd" d="M50.2562 32.1077C49.7999 32.1077 49.445 31.9811 49.2041 31.7275C48.9633 31.474 48.8492 31.1191 48.8492 30.6374V18.5827H46.9859C46.5803 18.5827 46.276 18.4813 46.0605 18.2912C45.8451 18.0884 45.7437 17.8094 45.7437 17.4292C45.7437 17.0616 45.8577 16.7827 46.0732 16.5925C46.2887 16.4024 46.5929 16.3137 46.9986 16.3137H48.8619V15.9208C48.8619 13.9307 49.3563 12.3842 50.3323 11.2941C51.321 10.204 52.7914 9.57013 54.7435 9.40535L55.6562 9.31668C55.859 9.30401 56.0364 9.32933 56.1885 9.36736C56.3533 9.41806 56.4801 9.49412 56.5815 9.6082C56.6829 9.70961 56.7463 9.83633 56.797 9.96309C56.8477 10.0898 56.873 10.2293 56.8857 10.3814C56.8857 10.5335 56.873 10.673 56.835 10.7997C56.797 10.9392 56.7336 11.0532 56.6575 11.18C56.5688 11.3068 56.4674 11.3955 56.3407 11.4715C56.2139 11.5349 56.0745 11.573 55.9223 11.5856L55.1998 11.649C54.5787 11.6997 54.0336 11.8138 53.59 12.004C53.1463 12.1941 52.7914 12.4349 52.5125 12.7645C51.9548 13.4109 51.6886 14.3616 51.6886 15.6291V16.3391H54.9336C55.7576 16.3391 56.1759 16.7067 56.1759 17.4545C56.1759 17.8348 56.0745 18.1136 55.859 18.3164C55.6435 18.5066 55.3393 18.6081 54.9336 18.6081H51.6886V30.6628C51.6886 31.6135 51.2069 32.1077 50.2562 32.1077ZM64.5546 32.1712C63.794 32.1712 63.0969 32.0825 62.4377 31.9177C61.7786 31.7529 61.1701 31.4993 60.6124 31.1697C60.0547 30.8402 59.5603 30.4346 59.1293 29.9656C58.6984 29.4966 58.3307 28.9642 58.0265 28.3557C57.7223 27.7473 57.4942 27.1009 57.342 26.3784C57.1899 25.6685 57.1139 24.9079 57.1139 24.084C57.1139 22.4488 57.4181 21.0291 58.0265 19.8249C58.3307 19.2165 58.6984 18.6841 59.1293 18.2151C59.5603 17.7461 60.0547 17.3405 60.6124 17.0109C61.1701 16.6814 61.7786 16.4277 62.4377 16.2629C63.0969 16.0982 63.794 16.0095 64.5546 16.0095C66.0503 16.0095 67.3559 16.3391 68.4841 16.9982C69.0418 17.3278 69.5489 17.7334 69.9798 18.2024C70.4108 18.6714 70.7784 19.2038 71.0826 19.8122C71.3869 20.4207 71.615 21.0672 71.7671 21.7897C71.9192 22.4996 71.9953 23.2601 71.9953 24.084C71.9953 24.9079 71.9192 25.6685 71.7671 26.3784C71.615 27.0882 71.3869 27.7473 71.0826 28.3557C70.7784 28.9642 70.4108 29.4966 69.9798 29.9656C69.5489 30.4346 69.0418 30.8402 68.4841 31.1697C67.9264 31.4993 67.3179 31.7529 66.6588 31.9177C65.9996 32.0825 65.3025 32.1712 64.5546 32.1712ZM64.5546 29.8389C65.2518 29.8389 65.8729 29.7121 66.4179 29.4712C66.963 29.2304 67.4574 28.8628 67.863 28.3684C68.6996 27.3797 69.1179 25.96 69.1179 24.1094C69.1179 22.2333 68.6996 20.8137 67.863 19.8376C67.4447 19.3559 66.963 18.9883 66.4179 18.7475C65.8602 18.5067 65.2391 18.3799 64.5546 18.3799C63.8574 18.3799 63.2236 18.5067 62.6659 18.7475C62.1082 18.9883 61.6265 19.3559 61.2208 19.8376C60.3969 20.8137 59.9786 22.246 59.9786 24.1094C59.9786 25.96 60.3969 27.3797 61.2208 28.3684C61.6265 28.8628 62.1082 29.2304 62.6659 29.4712C63.2236 29.7121 63.8574 29.8389 64.5546 29.8389ZM82.0346 32.1712C81.274 32.1712 80.5768 32.0825 79.9177 31.9177C79.2586 31.7529 78.6501 31.4993 78.0924 31.1697C77.5346 30.8402 77.0403 30.4346 76.6093 29.9656C76.1783 29.4966 75.8107 28.9642 75.5065 28.3557C75.2023 27.7473 74.9741 27.1009 74.822 26.3784C74.6699 25.6685 74.5938 24.9079 74.5938 24.084C74.5938 22.4488 74.8981 21.0291 75.5065 19.8249C75.8107 19.2165 76.1783 18.6841 76.6093 18.2151C77.0403 17.7461 77.5346 17.3405 78.0924 17.0109C78.6501 16.6814 79.2586 16.4277 79.9177 16.2629C80.5768 16.0982 81.274 16.0095 82.0346 16.0095C83.5303 16.0095 84.8359 16.3391 85.9641 16.9982C86.5218 17.3278 87.0288 17.7334 87.4598 18.2024C87.8908 18.6714 88.2584 19.2038 88.5626 19.8122C88.8668 20.4207 89.095 21.0672 89.2471 21.7897C89.3992 22.4996 89.4753 23.2601 89.4753 24.084C89.4753 24.9079 89.3992 25.6685 89.2471 26.3784C89.095 27.0882 88.8668 27.7473 88.5626 28.3557C88.2584 28.9642 87.8908 29.4966 87.4598 29.9656C87.0288 30.4346 86.5218 30.8402 85.9641 31.1697C85.4063 31.4993 84.7979 31.7529 84.1388 31.9177C83.4796 32.0825 82.7698 32.1712 82.0346 32.1712ZM82.0346 29.8389C82.7317 29.8389 83.3528 29.7121 83.8979 29.4712C84.443 29.2304 84.9373 28.8628 85.343 28.3684C86.1796 27.3797 86.5979 25.96 86.5979 24.1094C86.5979 22.2333 86.1796 20.8137 85.343 19.8376C84.9247 19.3559 84.443 18.9883 83.8979 18.7475C83.3402 18.5067 82.7191 18.3799 82.0346 18.3799C81.3374 18.3799 80.7036 18.5067 80.1459 18.7475C79.5881 18.9883 79.1064 19.3559 78.7008 19.8376C77.8769 20.8137 77.4586 22.246 77.4586 24.1094C77.4586 25.96 77.8769 27.3797 78.7008 28.3684C79.1064 28.8628 79.5881 29.2304 80.1459 29.4712C80.7036 29.7121 81.3247 29.8389 82.0346 29.8389ZM98.9695 32.1712C98.2723 32.1712 97.6258 32.0825 97.0174 31.9177C96.409 31.7529 95.8385 31.4993 95.3188 31.1697C94.7991 30.8402 94.3428 30.4346 93.9372 29.9656C93.5315 29.4966 93.1893 28.9642 92.9104 28.3557C92.6316 27.7473 92.4161 27.1009 92.2766 26.3911C92.1372 25.6812 92.0611 24.9206 92.0611 24.1094C92.0611 22.4488 92.34 21.0291 92.9104 19.8249C93.1893 19.2165 93.5315 18.6841 93.9372 18.2151C94.3428 17.7461 94.7991 17.3532 95.3188 17.0236C95.8385 16.694 96.409 16.4531 97.0174 16.2883C97.6258 16.1235 98.2723 16.0475 98.9695 16.0475C99.5779 16.0475 100.148 16.111 100.693 16.2504C101.238 16.3898 101.733 16.58 102.202 16.8588C102.671 17.125 103.076 17.4546 103.431 17.8222C103.647 18.063 103.85 18.3165 104.014 18.5827V10.6603C104.014 9.70963 104.496 9.22794 105.447 9.22794C106.385 9.22794 106.854 9.70963 106.854 10.6603V30.6501C106.854 31.6262 106.385 32.1204 105.447 32.1204C104.99 32.1204 104.636 31.9938 104.395 31.7402C104.154 31.4867 104.04 31.1318 104.04 30.6501V29.5726C103.862 29.8641 103.66 30.1303 103.431 30.3711C103.076 30.7514 102.671 31.081 102.202 31.3472C101.264 31.8923 100.186 32.1712 98.9695 32.1712ZM99.5019 29.8389C100.199 29.8389 100.82 29.7121 101.365 29.4712C101.91 29.2304 102.405 28.8628 102.81 28.3684C103.647 27.3797 104.065 25.96 104.065 24.1094C104.065 22.2333 103.647 20.8137 102.81 19.8376C102.392 19.3559 101.91 18.9883 101.365 18.7475C100.807 18.5067 100.186 18.3799 99.5019 18.3799C98.8047 18.3799 98.1709 18.5067 97.6132 18.7475C97.0554 18.9883 96.5737 19.3559 96.1681 19.8376C95.3442 20.8137 94.9259 22.246 94.9259 24.1094C94.9259 25.96 95.3442 27.3797 96.1681 28.3684C96.5737 28.8628 97.0554 29.2304 97.6132 29.4712C98.1709 29.7121 98.8047 29.8389 99.5019 29.8389ZM116.754 32.1077C115.917 32.1077 115.334 31.6769 115.017 30.8149L110.34 18.0883C110.112 17.4926 110.124 17.0236 110.378 16.656C110.504 16.4658 110.669 16.3264 110.859 16.2377C111.05 16.149 111.278 16.0981 111.544 16.0981C111.709 16.0981 111.873 16.1236 112.013 16.1616C112.152 16.1996 112.292 16.263 112.406 16.3518C112.52 16.4405 112.621 16.5546 112.71 16.7067C112.799 16.8588 112.875 17.0362 112.938 17.239L116.83 28.3177L120.835 17.2263C120.975 16.8587 121.165 16.5673 121.431 16.3771C121.697 16.187 122.014 16.0856 122.394 16.0856C122.762 16.0856 123.079 16.187 123.332 16.3771C123.586 16.5673 123.776 16.846 123.916 17.2263L127.87 28.343L131.825 17.163C131.977 16.7574 132.167 16.4785 132.396 16.3264C132.51 16.2503 132.636 16.1869 132.776 16.1489C132.915 16.1109 133.067 16.0981 133.245 16.0981C133.524 16.0981 133.752 16.149 133.942 16.2504C134.132 16.3645 134.272 16.5164 134.36 16.7319C134.436 16.9348 134.474 17.1503 134.462 17.3784C134.449 17.5939 134.398 17.8348 134.297 18.0757L129.62 30.8022C129.455 31.2205 129.227 31.5501 128.935 31.7656C128.644 31.9811 128.289 32.0952 127.883 32.0952C127.034 32.0952 126.463 31.6642 126.172 30.8022L122.344 20.3066L118.516 30.8022C118.363 31.2332 118.135 31.5501 117.844 31.7656C117.54 31.9938 117.172 32.1077 116.754 32.1077ZM139.165 12.9293C138.569 12.9293 138.125 12.7898 137.821 12.4983C137.517 12.2067 137.365 11.7758 137.365 11.2181C137.365 10.6603 137.517 10.242 137.834 9.96309C138.138 9.68422 138.594 9.54484 139.177 9.54484C139.773 9.54484 140.217 9.68422 140.521 9.96309C140.825 10.2546 140.99 10.673 140.99 11.2181C140.977 12.3589 140.369 12.9293 139.165 12.9293ZM139.165 32.0444C138.227 32.0444 137.758 31.5373 137.758 30.5233V17.6701C137.758 16.6687 138.227 16.1743 139.165 16.1743C139.634 16.1743 139.988 16.3011 140.229 16.5546C140.47 16.8081 140.597 17.1757 140.597 17.6701V30.5233C140.597 31.5373 140.115 32.0444 139.165 32.0444ZM150.357 32.1712C149.407 32.1712 148.443 32.0444 147.48 31.8035C146.998 31.6768 146.529 31.5246 146.073 31.3218C145.617 31.119 145.186 30.8783 144.78 30.6121C144.577 30.4853 144.425 30.3332 144.311 30.1684C144.21 29.991 144.159 29.8007 144.159 29.5853C144.171 29.167 144.336 28.8502 144.641 28.6093C144.805 28.4826 144.983 28.4192 145.198 28.4192C145.388 28.4192 145.604 28.4826 145.832 28.5967H145.845C146.25 28.8502 146.643 29.053 147.036 29.2304C147.429 29.4079 147.809 29.5346 148.177 29.636C148.557 29.7374 148.925 29.8135 149.305 29.8516C149.673 29.9023 150.053 29.9275 150.421 29.9275C151.004 29.9275 151.523 29.8768 151.954 29.7627C152.385 29.6613 152.74 29.4965 153.032 29.2937C153.602 28.8881 153.881 28.3304 153.881 27.6206C153.881 27.3417 153.83 27.1008 153.742 26.8853C153.653 26.6698 153.514 26.4924 153.336 26.3276C153.146 26.1628 152.905 26.0235 152.601 25.8967C152.297 25.7699 151.929 25.6558 151.511 25.5671L148.646 24.9333C147.315 24.6418 146.326 24.1601 145.655 23.4629C144.983 22.7657 144.641 21.8657 144.641 20.7756C144.641 20.0658 144.78 19.4193 145.071 18.8362C145.35 18.2658 145.781 17.7588 146.352 17.3278C146.922 16.8968 147.569 16.5799 148.304 16.3644C149.039 16.149 149.863 16.0475 150.763 16.0475C151.219 16.0475 151.663 16.0728 152.107 16.1362C152.55 16.1996 152.981 16.2883 153.412 16.415C153.843 16.5418 154.249 16.6939 154.629 16.8967C155.009 17.0869 155.377 17.3151 155.719 17.5813C156.125 17.8601 156.302 18.2152 156.252 18.6208C156.226 18.8236 156.176 19.001 156.074 19.1531C155.985 19.3052 155.859 19.4447 155.694 19.5588C155.529 19.6729 155.339 19.7362 155.136 19.7109C154.946 19.6982 154.73 19.6221 154.515 19.4827C154.211 19.2798 153.894 19.1023 153.577 18.9502C153.26 18.7981 152.943 18.6714 152.626 18.5827C152.309 18.4813 151.992 18.4179 151.676 18.3672C151.371 18.3165 151.054 18.2912 150.75 18.2912C150.18 18.2912 149.673 18.3419 149.242 18.456C148.811 18.5701 148.456 18.7347 148.164 18.9502C147.594 19.3812 147.315 19.9517 147.315 20.6616C147.315 21.2066 147.493 21.6502 147.847 22.0051C148.215 22.3601 148.773 22.6262 149.521 22.7783L152.385 23.3742C153.07 23.5263 153.666 23.7164 154.185 23.9573C154.705 24.1981 155.149 24.477 155.504 24.8066C155.871 25.1362 156.137 25.529 156.315 25.9854C156.492 26.429 156.581 26.936 156.581 27.5064C156.581 28.2289 156.442 28.8754 156.15 29.4585C155.859 30.0289 155.428 30.5234 154.857 30.9417C154.287 31.36 153.628 31.6642 152.867 31.867C152.132 32.0698 151.283 32.1712 150.357 32.1712ZM167.203 32.1712C164.757 32.1712 162.818 31.4487 161.385 30.0037C160.663 29.2811 160.13 28.4318 159.775 27.4431C159.421 26.4671 159.243 25.3643 159.243 24.1347C159.243 22.5376 159.56 21.1305 160.206 19.9009C160.523 19.2925 160.904 18.7475 161.347 18.2658C161.791 17.7841 162.285 17.3784 162.856 17.0488C163.984 16.377 165.277 16.0349 166.747 16.0349C167.799 16.0349 168.75 16.1997 169.574 16.5419C170.41 16.8842 171.12 17.3912 171.729 18.0757C172.325 18.7601 172.781 19.5588 173.072 20.4968C173.377 21.4221 173.516 22.4742 173.516 23.653C173.516 24.0206 173.402 24.2996 173.186 24.4897C172.971 24.6798 172.667 24.7685 172.261 24.7685H162.006C162.057 25.5544 162.197 26.2642 162.425 26.8726C162.666 27.5191 163.008 28.0515 163.464 28.4952C163.908 28.9388 164.44 29.2684 165.061 29.4839C165.682 29.7121 166.392 29.8135 167.203 29.8135C167.546 29.8135 167.888 29.7881 168.23 29.75C168.572 29.712 168.927 29.6361 169.27 29.5473C169.612 29.4586 169.954 29.3445 170.296 29.1797C170.639 29.0276 170.968 28.8375 171.298 28.6093C171.551 28.4446 171.792 28.343 172.02 28.305C172.261 28.267 172.464 28.3051 172.667 28.4192C172.857 28.5206 172.996 28.6599 173.085 28.8247C173.186 28.9895 173.237 29.1797 173.237 29.3952C173.237 29.6234 173.186 29.8262 173.06 30.0163C172.946 30.2065 172.768 30.3712 172.527 30.5359C172.172 30.7895 171.792 31.0177 171.374 31.2205C170.956 31.4233 170.499 31.5881 170.018 31.7275C169.536 31.867 169.054 31.9684 168.585 32.0318C168.116 32.1332 167.66 32.1712 167.203 32.1712ZM166.785 18.2151C165.378 18.2151 164.275 18.6461 163.464 19.5207C163.058 19.9644 162.729 20.4713 162.488 21.0418C162.26 21.5741 162.12 22.1699 162.032 22.8291H170.994C170.956 22.1319 170.841 21.4982 170.664 20.9531C170.474 20.37 170.195 19.8629 169.827 19.4573C169.472 19.0516 169.041 18.7348 168.534 18.532C168.04 18.3165 167.457 18.2151 166.785 18.2151Z" fill="black"/>
<path fill-rule="evenodd" clip-rule="evenodd" d="M32.6874 8.58143C29.5945 5.48852 25.3101 3.56177 20.5693 3.56177C15.8413 3.56177 11.5568 5.47585 8.45125 8.58143C5.35835 11.6743 3.43162 15.9587 3.43162 20.6994C3.43162 25.4275 5.34567 29.712 8.45125 32.8176C11.5442 35.9105 15.8286 37.8372 20.5693 37.8372C25.2974 37.8372 29.5819 35.9232 32.6874 32.8303C35.7803 29.7374 37.7071 25.4529 37.7071 20.7121C37.6944 15.9587 35.7803 11.6743 32.6874 8.58143ZM28.9861 10.4574C29.2143 10.2166 29.5312 10.0645 29.8988 10.0645C30.0762 10.0645 30.241 10.1025 30.4058 10.1659C30.5579 10.2293 30.71 10.3307 30.8241 10.4574C32.1804 11.8137 33.2325 13.411 33.955 15.1349C34.6775 16.8715 35.0578 18.7602 35.0578 20.6742C35.0578 22.5883 34.6775 24.477 33.955 26.2136C33.2325 27.9501 32.1804 29.5472 30.8241 30.9036L30.7861 30.9416C30.5452 31.1825 30.2283 31.3091 29.9114 31.3091C29.5945 31.3218 29.2776 31.2078 29.0241 30.9797C28.9988 30.9543 28.9607 30.9289 28.9354 30.8909C28.7072 30.6373 28.5932 30.3205 28.6058 30.0036C28.6185 29.6867 28.7326 29.3697 28.9734 29.1289L28.9861 29.1035C30.1016 27.9881 30.9762 26.6699 31.572 25.2375C32.1677 23.8051 32.4846 22.2587 32.4846 20.6742C32.4846 19.0897 32.1677 17.5432 31.572 16.1108C30.9762 14.6784 30.1016 13.3602 28.9861 12.2448C28.7199 11.9786 28.6058 11.6616 28.6058 11.3447C28.6058 11.18 28.6439 11.0152 28.6946 10.8631C28.7833 10.7236 28.872 10.5842 28.9861 10.4574ZM10.7202 10.1786C10.8723 10.1152 11.0244 10.0772 11.2019 10.0645C11.5949 10.0518 11.9244 10.2039 12.1653 10.4447C12.2794 10.5588 12.3554 10.6856 12.4188 10.8377C12.4822 10.9771 12.5202 11.142 12.5202 11.2941C12.5329 11.6236 12.4188 11.9659 12.1399 12.2321C9.80756 14.5644 8.64139 17.6193 8.64139 20.6742C8.64139 23.7291 9.80756 26.7839 12.1399 29.1162L12.1653 29.1289C12.4061 29.3697 12.5329 29.6867 12.5329 30.0036C12.5455 30.3205 12.4315 30.6373 12.2033 30.8909L12.1906 30.9036L12.1526 30.9416L12.1146 30.967C11.861 31.1952 11.5442 31.3093 11.2273 31.2966C10.9104 31.2839 10.5935 31.1698 10.3526 30.9289L10.3273 30.8909C7.51324 28.0642 6.10622 24.3629 6.10622 20.6615C6.10622 16.9602 7.51324 13.2461 10.34 10.4194C10.4414 10.3434 10.5681 10.242 10.7202 10.1786ZM6.54988 6.66736C10.1371 3.0801 15.1061 0.849121 20.5693 0.849121C26.0453 0.849121 31.0016 3.06743 34.5888 6.66736C38.1761 10.2546 40.3944 15.2108 40.3944 20.6994C40.3944 26.1754 38.1761 31.1317 34.5761 34.719C30.9889 38.3063 26.02 40.5245 20.5567 40.5245C15.0807 40.5245 10.1245 38.3062 6.5372 34.7063C2.94994 31.119 0.718994 26.1629 0.718994 20.6869C0.73167 15.2236 2.94994 10.2546 6.54988 6.66736Z" fill="black"/>
<path fill-rule="evenodd" clip-rule="evenodd" d="M16.589 21.5234C16.3735 21.308 16.2468 21.0165 16.2468 20.6869C16.2468 20.3574 16.3735 20.0658 16.589 19.8503C16.8045 19.6348 17.096 19.508 17.4256 19.508H23.7002C24.0297 19.508 24.3213 19.6348 24.5368 19.8503C24.7522 20.0658 24.879 20.3574 24.879 20.6869C24.879 21.0165 24.7522 21.308 24.5368 21.5234C24.3213 21.7389 24.0297 21.8657 23.7002 21.8657H17.4256C17.1087 21.8784 16.8045 21.7389 16.589 21.5234ZM25.6015 22.5756C25.817 22.3601 26.1086 22.2334 26.4381 22.2334C26.7677 22.2334 27.0592 22.3601 27.2747 22.5756C27.4902 22.7911 27.617 23.0826 27.617 23.4121V24.7558C27.617 25.5798 27.2874 26.3277 26.7424 26.8601C26.21 27.3925 25.4621 27.7346 24.6382 27.7346H23.2945C22.965 27.7346 22.6734 27.6078 22.4579 27.3924C22.2424 27.1769 22.1157 26.8853 22.1157 26.5557C22.1157 26.2261 22.2424 25.9347 22.4579 25.7192C22.6734 25.5037 22.965 25.3769 23.2945 25.3769H24.6382C24.803 25.3769 24.9551 25.3135 25.0691 25.1995C25.1832 25.0854 25.2466 24.9333 25.2466 24.7685V23.4248C25.2593 23.0826 25.386 22.7911 25.6015 22.5756ZM23.3072 13.6518H24.6508C25.4748 13.6518 26.2226 13.9813 26.755 14.5264C27.2874 15.0587 27.6297 15.8067 27.6297 16.6306V17.9743C27.6297 18.3039 27.5029 18.5953 27.2874 18.8108C27.0719 19.0263 26.7804 19.1531 26.4508 19.1531C26.1212 19.1531 25.8297 19.0263 25.6142 18.8108C25.3987 18.5953 25.272 18.3039 25.272 17.9743V16.6306C25.272 16.4658 25.2086 16.3137 25.0945 16.1997C24.9804 16.0856 24.8283 16.0222 24.6635 16.0222H23.3199C22.9903 16.0222 22.6988 15.8954 22.4833 15.6799C22.2678 15.4644 22.141 15.1728 22.141 14.8433C22.141 14.5137 22.2678 14.2222 22.4833 14.0068C22.6734 13.7786 22.9776 13.6518 23.3072 13.6518ZM17.8312 27.7346H16.4876C15.6637 27.7346 14.9158 27.4051 14.3834 26.8601C13.851 26.3277 13.5088 25.5798 13.5088 24.7558V23.4121C13.5088 23.0826 13.6355 22.7911 13.851 22.5756C14.0665 22.3601 14.3581 22.2334 14.6876 22.2334C15.0172 22.2334 15.3088 22.3601 15.5242 22.5756C15.7397 22.7911 15.8665 23.0826 15.8665 23.4121V24.7558C15.8665 24.9206 15.9299 25.0727 16.044 25.1868C16.158 25.3009 16.3101 25.3643 16.4749 25.3643H17.8186C18.1481 25.3643 18.4397 25.491 18.6552 25.7065C18.8707 25.922 18.9974 26.2136 18.9974 26.5432C18.9974 26.8727 18.8707 27.1642 18.6552 27.3797C18.4524 27.5952 18.1608 27.7346 17.8312 27.7346ZM15.5369 18.8108C15.3214 19.0263 15.0299 19.1531 14.7003 19.1531C14.3707 19.1531 14.0792 19.0263 13.8637 18.8108C13.6482 18.5953 13.5215 18.3039 13.5215 17.9743V16.6306C13.5215 15.8067 13.851 15.0587 14.3961 14.5264C14.9285 13.994 15.6764 13.6518 16.5003 13.6518H17.8439C18.1735 13.6518 18.465 13.7786 18.6805 13.9941C18.896 14.2096 19.0228 14.501 19.0228 14.8306C19.0228 15.1601 18.896 15.4517 18.6805 15.6672C18.465 15.8827 18.1735 16.0095 17.8439 16.0095H16.5003C16.3355 16.0095 16.1834 16.0729 16.0693 16.187C15.9552 16.301 15.8918 16.4531 15.8918 16.6179V17.9616C15.8792 18.3039 15.7524 18.5953 15.5369 18.8108Z" fill="black"/>
</svg>
