<svg width="319" height="250" viewBox="0 0 319 250" fill="none" xmlns="http://www.w3.org/2000/svg">
<path fill-rule="evenodd" clip-rule="evenodd" d="M33.2487 164C24.2362 150.576 12.8406 139.269 -0.0760498 130.32V249.384H80.3775C78.1212 246.672 76.017 243.845 74.0902 240.955C58.0426 216.947 49.3343 187.983 33.2487 164Z" fill="#1DAA8B"/>
<path fill-rule="evenodd" clip-rule="evenodd" d="M33.2487 164C49.347 187.983 58.0426 216.947 74.0902 240.968C76.017 243.858 78.1211 246.672 80.3774 249.397H145.823C140.398 235.39 139.574 219.9 145.899 206.046C155.786 184.383 178.628 173.811 196.919 159.551C215.223 145.29 230.713 118.189 218.24 98.5926C207.617 81.9113 184.662 82.7098 165.559 84.1168C109.735 88.2364 53.5047 82.076 -0.0887451 66.396V130.308C12.8406 139.269 24.2362 150.576 33.2487 164Z" fill="#23B797"/>
<path fill-rule="evenodd" clip-rule="evenodd" d="M165.559 84.1421C184.674 82.7351 207.617 81.9366 218.24 98.618C230.713 118.202 215.223 145.316 196.919 159.576C178.615 173.836 155.773 184.408 145.899 206.071C139.574 219.926 140.398 235.403 145.823 249.422H312.548C292.913 219.659 286.081 180.453 294.599 144.657C299.657 123.425 309.683 103.752 315.223 82.6338C320.762 61.5285 321.092 37.0642 308.365 20.2433C293.395 0.469042 265.812 -2.16764 241.855 1.43229C194.625 8.54344 150.614 33.5022 103.321 39.9415C68.0059 44.7456 31.8924 38.1796 -0.0760498 22.4616V66.434C53.5047 82.1013 109.735 88.2618 165.559 84.1421Z" fill="#29C1A0"/>
</svg>
